<?xml version="1.0" standalone="no"?>
<!DOCTYPE svg PUBLIC "-//W3C//DTD SVG 20010904//EN"
 "http://www.w3.org/TR/2001/REC-SVG-20010904/DTD/svg10.dtd">
<svg version="1.0" xmlns="http://www.w3.org/2000/svg"
 width="2103.000000pt" height="2103.000000pt" viewBox="0 0 2103.000000 2103.000000"
 preserveAspectRatio="xMidYMid meet">
<metadata>
Created by potrace 1.14, written by Peter Selinger 2001-2017
</metadata>
<g transform="translate(0.000000,2103.000000) scale(0.100000,-0.100000)"
fill="#000000" stroke="none">
<path d="M10138 21025 c-2 -1 -74 -6 -161 -10 -87 -3 -168 -8 -180 -10 -12 -2
-65 -6 -117 -10 -52 -3 -108 -8 -125 -10 -16 -2 -59 -7 -95 -10 -36 -3 -74 -7
-85 -9 -11 -2 -47 -7 -80 -10 -73 -8 -276 -35 -307 -41 -12 -3 -40 -7 -63 -10
-22 -4 -78 -13 -125 -21 -47 -8 -100 -17 -119 -20 -18 -3 -41 -7 -50 -9 -9 -2
-92 -19 -186 -39 -322 -66 -668 -155 -930 -238 -223 -70 -560 -187 -630 -217
-11 -5 -69 -28 -130 -51 -576 -223 -1291 -593 -1830 -949 -71 -47 -134 -88
-140 -90 -5 -2 -14 -8 -20 -13 -5 -4 -93 -67 -195 -140 -102 -72 -223 -161
-270 -197 -91 -70 -328 -259 -346 -276 -6 -5 -35 -30 -64 -55 -50 -42 -119
-101 -146 -125 -6 -5 -46 -41 -89 -80 -300 -268 -652 -628 -945 -968 -179
-209 -512 -636 -585 -752 -11 -16 -22 -32 -25 -35 -13 -13 -217 -318 -291
-435 -278 -442 -549 -953 -736 -1385 -25 -58 -53 -123 -63 -145 -30 -67 -157
-388 -165 -415 -4 -14 -13 -38 -20 -55 -16 -39 -66 -175 -70 -195 -5 -19 -44
-135 -62 -180 -7 -19 -15 -44 -18 -55 -2 -11 -18 -65 -35 -120 -52 -166 -151
-523 -164 -592 -2 -10 -18 -76 -35 -148 -16 -71 -32 -141 -35 -155 -3 -14 -8
-36 -11 -50 -26 -117 -102 -553 -119 -685 -11 -88 -17 -131 -21 -155 -2 -14
-7 -50 -10 -80 -3 -30 -7 -71 -10 -90 -8 -66 -19 -180 -30 -315 -4 -44 -8 -96
-10 -115 -20 -214 -27 -1011 -11 -1285 14 -257 14 -255 31 -445 14 -150 17
-174 30 -275 3 -16 7 -50 10 -75 7 -71 15 -133 20 -161 3 -15 7 -47 10 -70 3
-24 10 -69 15 -99 5 -30 12 -71 15 -90 4 -19 15 -82 25 -140 11 -58 22 -118
25 -135 29 -164 98 -458 199 -846 86 -332 300 -937 474 -1339 163 -377 415
-878 574 -1138 21 -34 38 -64 38 -66 0 -2 46 -78 101 -167 437 -705 921 -1318
1495 -1893 184 -185 408 -395 518 -487 16 -13 36 -31 45 -40 29 -28 254 -214
376 -310 232 -183 452 -340 700 -503 99 -65 191 -126 205 -135 22 -15 55 -35
175 -106 19 -11 70 -41 114 -67 44 -27 85 -48 91 -48 5 0 10 -4 10 -10 0 -5 5
-10 11 -10 6 0 37 -15 68 -34 31 -18 119 -66 196 -106 680 -355 1334 -614
2045 -810 179 -49 378 -99 504 -126 39 -9 78 -17 86 -19 98 -23 351 -70 600
-110 26 -4 221 -30 300 -40 25 -3 54 -7 65 -9 17 -3 106 -12 210 -21 17 -2 68
-6 115 -10 255 -23 451 -29 850 -29 339 0 481 4 705 19 123 9 204 16 235 20
19 3 62 7 95 10 115 12 320 36 375 45 30 5 75 12 100 15 130 18 458 79 703
130 10 2 75 18 145 35 70 17 134 33 142 35 63 14 389 107 540 155 515 162 944
334 1439 576 325 160 705 370 914 506 23 15 49 31 57 35 47 22 433 287 610
417 106 78 456 352 480 376 15 14 36 32 155 132 300 252 782 735 1065 1068 39
46 64 75 103 120 18 21 145 178 194 240 113 143 308 407 385 520 81 118 195
288 203 302 5 10 53 86 105 170 52 84 103 169 114 188 10 19 27 47 37 62 11
14 19 28 19 31 0 3 25 48 55 101 30 52 55 97 55 100 0 3 14 29 31 58 31 52
269 523 269 532 0 2 18 42 39 88 346 739 651 1719 796 2553 2 17 9 55 15 85
12 70 17 104 25 160 3 25 8 56 10 70 9 49 16 100 30 210 3 25 7 61 10 80 24
184 46 443 61 725 16 282 9 1138 -10 1255 -3 14 -7 70 -10 125 -4 55 -8 116
-11 135 -2 19 -6 64 -10 100 -9 97 -14 147 -25 225 -5 39 -12 93 -16 120 -16
140 -83 537 -118 710 -198 951 -488 1788 -913 2640 -89 177 -111 220 -183 350
-15 28 -39 70 -52 95 -67 122 -185 320 -255 428 -29 45 -53 87 -53 92 0 6 -4
10 -8 10 -5 0 -13 10 -19 23 -15 32 -274 410 -350 512 -5 6 -35 46 -68 90 -63
85 -284 366 -294 375 -3 3 -24 28 -46 55 -22 28 -54 66 -71 85 -17 19 -68 78
-114 130 -225 259 -561 599 -835 845 -55 50 -102 92 -105 95 -3 3 -41 36 -85
74 -44 38 -92 79 -106 91 -137 118 -477 378 -709 541 -178 126 -612 406 -655
423 -5 2 -37 21 -70 41 -267 163 -837 448 -1175 586 -47 19 -98 41 -115 49
-16 7 -50 21 -75 30 -41 16 -59 22 -115 46 -104 44 -563 199 -750 255 -102 30
-480 132 -510 138 -11 3 -42 10 -70 16 -27 6 -57 13 -65 15 -152 34 -200 44
-225 49 -16 2 -77 14 -135 25 -212 42 -546 93 -760 116 -30 3 -66 8 -80 10
-14 2 -63 7 -110 10 -47 4 -98 9 -115 11 -16 2 -79 6 -140 10 -60 3 -130 8
-155 10 -52 6 -917 14 -922 9z"/>
</g>
</svg>
